<svg width="98" height="101" viewBox="0 0 98 101" fill="none" xmlns="http://www.w3.org/2000/svg">
<g filter="url(#filter0_d_0_391)">
<circle cx="55" cy="46" r="40" fill="white"/>
</g>
<path d="M47 51.2001C47 56.0376 50.9125 59.9501 55.75 59.9501C60.5875 59.9501 64.5 56.0376 64.5 51.2001V46.2001H47V51.2001ZM60.9 36.6626L63.525 34.0376L62.5 33.0001L59.625 35.8876C58.45 35.3001 57.15 34.9501 55.75 34.9501C54.35 34.9501 53.05 35.3001 51.8875 35.8876L49 33.0001L47.975 34.0376L50.6 36.6626C48.425 38.2501 47 40.8001 47 43.7001V44.9501H64.5V43.7001C64.5 40.8001 63.075 38.2501 60.9 36.6626ZM52 42.4501C51.3125 42.4501 50.75 41.8876 50.75 41.2001C50.75 40.5126 51.3125 39.9501 52 39.9501C52.6875 39.9501 53.25 40.5126 53.25 41.2001C53.25 41.8876 52.6875 42.4501 52 42.4501ZM59.5 42.4501C58.8125 42.4501 58.25 41.8876 58.25 41.2001C58.25 40.5126 58.8125 39.9501 59.5 39.9501C60.1875 39.9501 60.75 40.5126 60.75 41.2001C60.75 41.8876 60.1875 42.4501 59.5 42.4501Z" fill="#5AB2F1"/>
<path d="M49 7.04631C49 3.15474 45.8272 -0.0551603 41.9812 0.538632C38.3555 1.0984 34.8015 2.09118 31.3966 3.50154C25.8156 5.81326 20.7446 9.20159 16.4731 13.4731C12.2016 17.7446 8.81326 22.8156 6.50154 28.3966C4.18982 33.9775 3 39.9592 3 46C3 52.0408 4.18983 58.0225 6.50154 63.6034C8.81326 69.1844 12.2016 74.2554 16.4731 78.5269C20.7446 82.7984 25.8156 86.1867 31.3966 88.4985C34.8015 89.9088 38.3555 90.9016 41.9812 91.4614C45.8272 92.0552 49 88.8453 49 84.9537C49 81.0621 45.8078 77.9849 42.0108 77.1325C40.2304 76.7328 38.4834 76.1802 36.7896 75.4786C32.9184 73.8751 29.4009 71.5248 26.4381 68.5619C23.4752 65.5991 21.1249 62.0816 19.5214 58.2104C17.9179 54.3392 17.0926 50.1901 17.0926 46C17.0926 41.8099 17.9179 37.6608 19.5214 33.7896C21.1249 29.9184 23.4752 26.4009 26.4381 23.4381C29.4009 20.4752 32.9184 18.1249 36.7896 16.5214C38.4834 15.8198 40.2304 15.2672 42.0108 14.8675C45.8078 14.0151 49 10.9379 49 7.04631Z" fill="url(#paint0_linear_0_391)"/>
<defs>
<filter id="filter0_d_0_391" x="0" y="3" width="98" height="98" filterUnits="userSpaceOnUse" color-interpolation-filters="sRGB">
<feFlood flood-opacity="0" result="BackgroundImageFix"/>
<feColorMatrix in="SourceAlpha" type="matrix" values="0 0 0 0 0 0 0 0 0 0 0 0 0 0 0 0 0 0 127 0" result="hardAlpha"/>
<feOffset dx="-6" dy="6"/>
<feGaussianBlur stdDeviation="4.5"/>
<feColorMatrix type="matrix" values="0 0 0 0 0.333333 0 0 0 0 0.690196 0 0 0 0 0.941176 0 0 0 0.5 0"/>
<feBlend mode="normal" in2="BackgroundImageFix" result="effect1_dropShadow_0_391"/>
<feBlend mode="normal" in="SourceGraphic" in2="effect1_dropShadow_0_391" result="shape"/>
</filter>
<linearGradient id="paint0_linear_0_391" x1="43.1455" y1="1.22985e-06" x2="88.7273" y2="74.8545" gradientUnits="userSpaceOnUse">
<stop stop-color="#54AFF0"/>
<stop offset="1" stop-color="#54AFF0" stop-opacity="0"/>
</linearGradient>
</defs>
</svg>
